<svg xmlns:xlink="http://www.w3.org/1999/xlink" xmlns="http://www.w3.org/2000/svg" width="32"  height="32" >
<symbol xmlns="http://www.w3.org/2000/svg" id="avatar" viewBox="0 0 32 32"><path d="M18.21 25.63h-4.42v1.874h4.42V25.63zM8.506 20.273V18.06h14.989v2.212c0 1.967-1.6 3.567-3.568 3.567a3.572 3.572 0 01-3.568-3.567v-.337h-.718v.337a3.57 3.57 0 01-3.567 3.567 3.572 3.572 0 01-3.568-3.567zm3.568 1.692c.933 0 1.693-.759 1.693-1.692v-.337H10.38v.337c0 .933.76 1.692 1.693 1.692zm7.853 0c.933 0 1.693-.759 1.693-1.692v-.337h-3.386v.337c0 .933.76 1.692 1.693 1.692z"/><path d="M24.525 11.917a10.44 10.44 0 00-4.3-3.503L20.812 0h-9.625l.587 8.414a10.44 10.44 0 00-4.3 3.503 10.397 10.397 0 00-1.943 6.076v3.539C5.531 27.304 10.227 32 16 32c5.772 0 10.468-4.696 10.468-10.468v-3.539a10.4 10.4 0 00-1.943-6.076zM18.802 1.875l-.76 10.887h-4.085l-.76-10.887h5.605zm5.791 19.657c0 4.738-3.855 8.593-8.593 8.593-4.739 0-8.594-3.855-8.594-8.593v-3.539a8.624 8.624 0 014.509-7.56l.293 4.204h7.583l.293-4.205a8.624 8.624 0 014.51 7.561v3.539z"/></symbol>
<symbol xmlns="http://www.w3.org/2000/svg" id="casino" viewBox="0 0 32 32"><path d="M24.22 0c-2.083 0-3.779 1.53-3.779 3.41v5.366a4.09 4.09 0 00-1.7-.367c-1.079 0-2.052.41-2.741 1.065a3.973 3.973 0 00-2.74-1.065 4.09 4.09 0 00-1.701.367V3.409C11.559 1.53 9.863 0 7.779 0 5.695 0 4 1.53 4 3.41v14.744l4.779-4.311c.321-.29.748-.45 1.202-.45.455 0 .882.16 1.203.45.322.29.498.675.498 1.085 0 .41-.177.795-.498 1.085L4.07 22.43l.084.473c.448 2.512 1.878 4.814 4.027 6.482C10.353 31.072 13.13 32 16 32c6.617 0 12-4.856 12-10.825V3.409C28 1.53 26.305 0 24.22 0zM9.495 11.547a3.919 3.919 0 00-2.185.97l-1.23 1.11V3.409c0-.846.763-1.534 1.7-1.534.938 0 1.701.688 1.701 1.534 0 0 .016 8.108.014 8.138zm7.545.272c0-.846.763-1.535 1.701-1.535.938 0 1.701.689 1.701 1.535v4.245c0 .846-.763 1.534-1.7 1.534-.939 0-1.702-.688-1.702-1.534v-4.245zm-5.48.01v-.01c0-.846.763-1.535 1.7-1.535.939 0 1.702.689 1.702 1.535v4.245c0 .846-.763 1.534-1.701 1.534a1.86 1.86 0 01-.729-.149l.123-.11c.714-.644 1.107-1.5 1.107-2.411s-.393-1.767-1.107-2.411a3.81 3.81 0 00-1.095-.689zm14.363 9.346c0 4.935-4.451 8.95-9.922 8.95-2.373 0-4.668-.767-6.464-2.16-1.645-1.277-2.78-3.001-3.234-4.896l4.721-4.26a4.06 4.06 0 002.237.664c1.078 0 2.05-.41 2.74-1.065a3.973 3.973 0 002.74 1.065c2.084 0 3.78-1.53 3.78-3.41V3.41c0-.846.763-1.534 1.7-1.534.939 0 1.702.688 1.702 1.534v17.766z"/></symbol>
<symbol xmlns="http://www.w3.org/2000/svg" id="challenges" viewBox="0 0 20 20"><path d="M5.303 4.918l1.403.79v1.156l-.363.204.328.185V8.84H5.5v-.901l-.728-.41v1.31H3.6v-3.92h1.704zM4.77 6.09v.519l.573-.323-.348-.196H4.77zm2.137-.242l1.53-.86 1.53.86v2.646l-1.53.861-1.53-.86V5.847zm1.53 2.162l.358-.201V6.534l-.358-.202-.358.202v1.275l.358.201zM11.718 8.01l-.358-.201V6.534l.358-.202.657.37.575-1.022-1.232-.692-1.53.86v2.646l1.53.861 1.232-.693-.575-1.021-.657.37zm4.384-1.882l-.924.52 1.157.651v1.579h-1.171v-.894l-.595-.334v1.228h-1.172V5.073h1.172v.572l.958-.539.575 1.022zM11.156 12.413l2.694.34-1.98 1.858.51 2.667L10 15.97l-2.38 1.31.51-2.668-1.98-1.858 2.694-.34L10 9.956l1.156 2.457zM10 14.632l.76.418-.162-.852.633-.595-.861-.108-.37-.786-.37.786-.86.108.632.595-.163.852.761-.418z"/><path d="M17.071 2.929A9.935 9.935 0 0010 0a9.935 9.935 0 00-7.071 2.929A9.934 9.934 0 000 9.999a9.935 9.935 0 002.929 7.072A9.935 9.935 0 0010 20a9.935 9.935 0 007.071-2.93A9.934 9.934 0 0020 10a9.935 9.935 0 00-2.929-7.071zm-.829 13.313A8.77 8.77 0 0110 18.828a8.77 8.77 0 01-6.243-2.585A8.77 8.77 0 011.172 10a8.77 8.77 0 012.586-6.242A8.77 8.77 0 0110 1.172a8.77 8.77 0 016.242 2.586A8.77 8.77 0 0118.828 10a8.77 8.77 0 01-2.585 6.242z"/></symbol>
<symbol xmlns="http://www.w3.org/2000/svg" id="crab" viewBox="0 0 20 20"><path fill-rule="evenodd" clip-rule="evenodd" d="M15.713 1.307c.61.202 1.13.459 1.456.74a.8.8 0 01.017.016l.12.11a3.404 3.404 0 01.86 1.153c.142.354.195.742.154 1.124-.04.37-.167.725-.37 1.029-.13.225-.303.42-.51.571a1.667 1.667 0 01-.731.302c-.263.04-.53.014-.783-.075l-.01-.004-.74 1.148a1.03 1.03 0 01-.69.457.986.986 0 01-.745-.182l-.711 1.092-.01.014c-.158.23-.4.394-.678.44a.988.988 0 01-.8-.225l-.56-.483a2.544 2.544 0 00-1.034 1.149 2.968 2.968 0 00-.17 2.003c.257.677.73 1.159 1.363 1.285.656.13 1.673-.082 3.065-1.252a1.307 1.307 0 00.041-.094l.007-.014c.015-.038.037-.093.062-.147.061-.135.153-.302.31-.464.155-.16.347-.288.58-.39l.26.65-.246-.657a1.704 1.704 0 011.428.06c.22.112.417.27.578.464.159.19.28.41.361.647.163.445.169.938.018 1.386a1.78 1.78 0 01-.124.373c-.772 1.467-1.866 2.702-3.185 3.589-1.665 1.221-4.056 2.068-6.376 2.044-2.34-.024-4.698-.943-6.09-3.37-2.41-4.203-.384-10.706 5.396-13.66C9.476.989 11.672.73 13.431.866a9.726 9.726 0 012.282.441zm.005 10.607a.465.465 0 00-.147.09.215.215 0 00-.04.068 2.148 2.148 0 00-.039.09l-.006.016c-.019.045-.045.11-.078.177-.072.146-.18.314-.36.464-1.554 1.306-2.964 1.774-4.157 1.537-1.208-.24-2.001-1.163-2.38-2.19a4.44 4.44 0 01.226-3.1c.44-.945 1.2-1.673 2.13-2.017a.649.649 0 01.652.121l.599.517.58-.89-.022-.02a.729.729 0 01-.072-.99.652.652 0 01.943-.086l.714.62.594-.922a28.816 28.816 0 01-.134-.148l-.02-.025a.86.86 0 01-.063-.088 1.244 1.244 0 01-.036-.068 1.323 1.323 0 01-.062-.224c.002-.176.196-.584.425-.739.168-.043.415-.025.487 0 .036.016.09.045.11.058a1.216 1.216 0 01.078.059l.035.032.011.011.015.016.034.036a28.532 28.532 0 01.274.3l.018.022a.384.384 0 00.33.3.33.33 0 00.16.015.356.356 0 00.156-.065.448.448 0 00.129-.148.71.71 0 01.04-.064.876.876 0 00.092-.785 1.998 1.998 0 00-.508-.654l-.119-.11c-.139-.116-.468-.303-.999-.478a8.438 8.438 0 00-1.976-.38c-1.556-.119-3.51.109-5.517 1.132-5.263 2.69-6.732 8.352-4.832 11.666 1.084 1.89 2.93 2.666 4.95 2.686 2.036.02 4.16-.735 5.602-1.797a8.41 8.41 0 002.747-3.07.315.315 0 00.011-.044.726.726 0 01.036-.135.631.631 0 00-.008-.46.598.598 0 00-.108-.194.494.494 0 00-.154-.125.42.42 0 00-.341-.017z"/></symbol>
<symbol xmlns="http://www.w3.org/2000/svg" id="house-tour" viewBox="0 0 32 32"><path d="M5.079 5.111a3.27 3.27 0 000 4.65c1.282 1.277 3.374 1.277 4.668 0a3.27 3.27 0 000-4.65 3.301 3.301 0 00-4.668 0zm1.406 1.412a1.288 1.288 0 000 1.826c.517.504 1.338.504 1.833 0a1.288 1.288 0 000-1.826 1.3 1.3 0 00-1.833 0z" fill-rule="evenodd" clip-rule="evenodd"/><path d="M7.812 21.177c1.743 0 3.296-.683 4.477-1.972a6.752 6.752 0 001.175-1.797l2.986 2.974-1.698 1.691 3.678 3.664 1.698-1.692 1.27 1.266-1.697 1.692 3.677 3.664 1.699-1.692 1.63 1.624 3.96-3.943-13.272-13.21a6.83 6.83 0 001.89-1.21c1.585-1.445 2.249-3.461 1.866-5.668-.438-1.972-1.62-3.384-3.543-4.247-1.484-.66-3.407-1.02-5.668-.986L1.469 1.47l-.135 10.42c-.012 2.274.326 4.178.99 5.657.865 1.916 2.283 3.104 4.228 3.53.428.055.844.1 1.26.1zm6.265-7.159c.023.391.014.78-.024 1.164l5.231 5.21-1.698 1.693.844.84 1.698-1.692 4.105 4.09-1.698 1.691.843.84 1.699-1.691 1.63 1.624 1.137-1.131-12.698-12.648c-.353.03-.71.033-1.07.01zm-2.17-2.162l.145 2.285c.09 1.356-.382 2.745-1.26 3.697-.685.751-1.911 1.58-3.835 1.244-1.27-.28-2.17-1.042-2.767-2.375-.54-1.199-.82-2.857-.81-4.807l.09-8.436 8.481-.112c1.957-.033 3.61.269 4.814.807 1.338.605 2.103 1.49 2.396 2.8.337 1.883-.495 3.104-1.249 3.788-.967.873-2.35 1.344-3.711 1.254l-2.295-.145z" fill-rule="evenodd" clip-rule="evenodd"/></symbol>
<symbol xmlns="http://www.w3.org/2000/svg" id="home-no-fill" viewBox="0 0 20 20"><path d="M19.5 8.66l-.002-.002L11.34.5a1.829 1.829 0 00-1.302-.54A1.83 1.83 0 008.736.5L.582 8.654l-.008.009a1.843 1.843 0 00.003 2.6 1.83 1.83 0 001.279.54h.325v6.003c0 1.188.967 2.155 2.155 2.155h3.192a.586.586 0 00.586-.586v-4.707c0-.542.44-.983.983-.983h1.883c.542 0 .983.44.983.983v4.707c0 .323.262.586.586.586h3.191a2.157 2.157 0 002.155-2.155v-6.004h.302a1.83 1.83 0 001.302-.54A1.844 1.844 0 0019.5 8.66zm-.83 1.774a.665.665 0 01-.473.197h-.887a.586.586 0 00-.586.585v6.59c0 .542-.441.983-.984.983h-2.606v-4.121a2.157 2.157 0 00-2.155-2.155H9.098a2.158 2.158 0 00-2.155 2.155v4.121H4.336a.984.984 0 01-.983-.983v-6.59a.586.586 0 00-.586-.585h-.872a.664.664 0 01-.488-.196.67.67 0 010-.948l8.158-8.158a.665.665 0 01.946 0l8.157 8.156.004.004a.67.67 0 01-.002.945z"/></symbol>
<symbol xmlns="http://www.w3.org/2000/svg" id="live-casino" viewBox="0 0 32 32"><path d="M23.794 12.91V7.666C23.794 3.439 20.298 0 16 0S8.205 3.44 8.205 7.667v5.242H5.333v.938c0 4.86 3.465 8.948 8.122 10.06v3.59H9.593V32h12.813v-4.503h-3.862v-3.59c4.657-1.112 8.122-5.2 8.122-10.06v-.938h-2.872zm-13.588-1.216h3.043V9.82h-3.043V7.667c0-.087.002-.172.006-.257h3.037V5.535h-2.636A5.803 5.803 0 0116 1.875a5.803 5.803 0 015.387 3.66H18.75V7.41h3.037c.003.085.006.17.006.257v2.152H18.75v1.875h3.043v2.153c0 .086-.003.172-.006.257H18.75v1.875h2.636A5.803 5.803 0 0116 19.639a5.803 5.803 0 01-5.387-3.66h2.636v-1.875h-3.037a5.926 5.926 0 01-.006-.257v-2.153zm10.2 17.677v.754h-8.812v-.753h8.811zm-4.95-1.874v-3.305a11.03 11.03 0 001.088 0v3.305h-1.088zM16 22.33c-4.455 0-8.136-3.308-8.614-7.546h.877c.472 3.787 3.761 6.73 7.737 6.73 3.975 0 7.264-2.943 7.736-6.73h.877c-.478 4.238-4.159 7.546-8.613 7.546z"/></symbol>
<symbol xmlns="http://www.w3.org/2000/svg" id="promotions" viewBox="0 0 32 32"><path d="M30.666 7.53H22.9a4.966 4.966 0 00.865-2.824C23.764 2.11 21.83 0 19.451 0c-1.72 0-3.208 1.104-3.9 2.696a3.258 3.258 0 00-2.14-.814c-1.902 0-3.45 1.69-3.45 3.765 0 .686.17 1.328.464 1.882H1.333v7.53h1.726V32H28.94V15.059h1.725v-7.53zM14.274 9.411h3.451v14.241L16 22.398l-1.726 1.255V9.412zm2.588-4.706c0-1.557 1.161-2.824 2.589-2.824 1.427 0 2.588 1.267 2.588 2.824s-1.161 2.823-2.588 2.823h-2.589V4.706zm-5.176.941c0-1.038.774-1.882 1.725-1.882.952 0 1.726.844 1.726 1.882V7.53H13.41c-.951 0-1.725-.844-1.725-1.882zM3.059 9.412h9.49v3.764h-9.49V9.413zm24.156 20.706H4.784v-15.06h7.765V27.17l3.45-2.51 3.452 2.51V15.06h7.764v15.059zm1.726-16.941h-9.49V9.412h9.49v3.764z"/>
</symbol>
<symbol xmlns="http://www.w3.org/2000/svg" id="search-thin" viewBox="0 0 20 20"><path xmlns="http://www.w3.org/2000/svg" fill-rule="evenodd" clip-rule="evenodd" d="M8.985 1.539c-4.042 0-7.318 3.024-7.318 6.755 0 3.73 3.276 6.755 7.318 6.755 1.38 0 2.672-.353 3.774-.967.042.095.1.185.175.268l3.484 3.833c.385.423 1.07.479 1.528.123a.949.949 0 00.133-1.41l-3.484-3.833a1.06 1.06 0 00-.23-.19c1.203-1.204 1.938-2.812 1.938-4.58 0-3.73-3.277-6.754-7.318-6.754zM3.293 8.294c0-2.902 2.548-5.254 5.692-5.254 3.143 0 5.691 2.352 5.691 5.254 0 2.901-2.548 5.254-5.691 5.254-3.144 0-5.692-2.353-5.692-5.254z"/></symbol>
<symbol xmlns="http://www.w3.org/2000/svg" id="shop" viewBox="0 0 32 32"><path d="M17.68 14.32A2.38 2.38 0 0013.623 16c0 .635.248 1.232.696 1.68a2.369 2.369 0 001.681.695c.609 0 1.217-.231 1.68-.694a2.38 2.38 0 000-3.362zm-1.325 2.035a.502.502 0 11-.71-.711.502.502 0 01.71.71z"/><path d="M20.751 11.249a6.727 6.727 0 00-9.502 0 6.727 6.727 0 000 9.502A6.697 6.697 0 0016 22.716c1.72 0 3.442-.655 4.751-1.965a6.675 6.675 0 001.968-4.75 6.676 6.676 0 00-1.968-4.752zm-8.176 8.176a4.85 4.85 0 010-6.85A4.828 4.828 0 0116 11.158a4.83 4.83 0 013.425 1.417A4.812 4.812 0 0120.846 16c0 1.294-.505 2.51-1.42 3.425a4.85 4.85 0 01-6.85 0z"/><path d="M24.093 7.907A11.37 11.37 0 0016 4.555a11.37 11.37 0 00-8.093 3.352l1.326 1.326A9.508 9.508 0 0116 6.43c2.556 0 4.96.995 6.767 2.803A9.507 9.507 0 0125.57 16c0 2.556-.995 4.96-2.803 6.767l1.326 1.326A11.37 11.37 0 0027.445 16a11.37 11.37 0 00-3.352-8.093zM6.462 16.782a9.573 9.573 0 008.756 8.756l-.152 1.869a11.45 11.45 0 01-7.159-3.314 11.45 11.45 0 01-3.314-7.159l1.87-.152z"/><path d="M16 0c4.274 0 8.291 1.664 11.314 4.686A15.896 15.896 0 0132 16c0 4.274-1.664 8.292-4.686 11.314A15.895 15.895 0 0116 32a15.896 15.896 0 01-11.314-4.686A15.896 15.896 0 010 16c0-4.274 1.664-8.292 4.686-11.314A15.896 15.896 0 0116 0zm0 30.125c3.773 0 7.32-1.47 9.988-4.137A14.032 14.032 0 0030.125 16c0-3.773-1.47-7.32-4.137-9.988A14.033 14.033 0 0016 1.875c-3.773 0-7.32 1.47-9.988 4.137A14.033 14.033 0 001.875 16c0 3.773 1.47 7.32 4.137 9.988A14.034 14.034 0 0016 30.125z"/></symbol>
<symbol xmlns="http://www.w3.org/2000/svg" id="search" viewBox="0 0 18 18"><path d="M16.939 15.003l-3.832-3.884a6.86 6.86 0 001.029-3.625c0-3.77-3.015-6.827-6.735-6.827S.667 3.723.667 7.494c0 3.77 3.015 6.826 6.734 6.826 1.43 0 2.756-.453 3.847-1.224l3.786 3.839a1.334 1.334 0 001.905 0 1.38 1.38 0 000-1.932zM7.4 12.108c-2.514 0-4.552-2.066-4.552-4.614 0-2.549 2.038-4.615 4.552-4.615s4.552 2.066 4.552 4.615c0 2.549-2.038 4.614-4.552 4.614z"/></symbol>
<symbol xmlns="http://www.w3.org/2000/svg" id="tournaments" viewBox="0 0 32 32"><path d="M12.316 13.495l.42-2.25-1.78-1.595.566-1.6 2.461-.328 1.1-2.048h1.833l1.1 2.048 2.461.328.567 1.6-1.781 1.594.42 2.251-1.482.99L16 13.421l-2.201 1.062-1.483-.989zm1.545-3.862l1.07.957-.253 1.351L16 11.303l1.322.638-.253-1.351 1.07-.957-1.478-.198L16 8.205l-.661 1.23-1.478.198z"/><path d="M10.408 18.485C5.064 15.56 2.437 9.516 2.683 3.714H6.85a52.899 52.899 0 01-.064-1.839H5.749V0H26.25v1.875h-1.038c-.01.617-.032 1.23-.064 1.839h4.168c.253 5.845-2.393 11.824-7.725 14.77-.713 1.267-1.439 2.277-2.52 3.17v1.877c0 1.56 1.38 2.828 3.079 2.828h1.02V32H8.829v-5.64H9.85c1.698 0 3.08-1.27 3.08-2.829v-1.877c-1.025-.83-1.799-1.885-2.521-3.17zM25.017 5.589c-.306 3.426-.95 6.63-1.889 9.362 2.443-2.414 3.889-5.815 4.118-9.362h-2.23zM21.13 30.125v-1.89H10.87v1.89h10.26zm-6.16-7.43v.836c0 1.061-.384 2.04-1.032 2.828h4.124a4.435 4.435 0 01-1.033-2.828v-.836a4.38 4.38 0 01-2.058 0zM8.83 1.875c.093 4.987.932 9.846 2.333 13.456 1.364 3.514 3.172 5.612 4.837 5.612 1.665 0 3.473-2.098 4.837-5.613 1.401-3.61 2.24-8.468 2.334-13.455H8.829zM6.982 5.589H4.754c.23 3.546 1.674 6.947 4.117 9.36-.938-2.73-1.582-5.935-1.888-9.36z"/>
</symbol>
<symbol xmlns="http://www.w3.org/2000/svg" id="vip" viewBox="0 0 32 32"><path d="M13.599 20.529l2.4-4.159 2.402 4.159h-4.802z"/><path d="M16 0c2.647 0 5.195.79 7.369 2.284a13.01 13.01 0 014.457 5.28h1.927v3.75a6.703 6.703 0 01-.818 3.22 12.972 12.972 0 01-3.962 7.925v4.99l-.149.232C24.711 27.858 21.99 32 16 32s-8.712-4.142-8.825-4.319l-.148-.231v-4.99a12.97 12.97 0 01-3.962-7.926 6.703 6.703 0 01-.819-3.22v-3.75h1.928a13.013 13.013 0 014.457-5.28A12.95 12.95 0 0116 0zm0 1.875a11.151 11.151 0 00-9.72 5.689h19.44A11.153 11.153 0 0016 1.875zM4.12 9.439v1.876a4.875 4.875 0 004.87 4.87 4.875 4.875 0 004.87-4.87V9.439H4.12zm18.977 12.189l.314-.28a11.147 11.147 0 002.938-4.175 6.703 6.703 0 01-3.341.887 6.752 6.752 0 01-6.745-6.745V9.439h-.528v1.876A6.752 6.752 0 018.99 18.06a6.703 6.703 0 01-3.34-.887 11.147 11.147 0 002.937 4.175l.314.28v5.243c.241.31.778.93 1.622 1.54a8.832 8.832 0 001.86 1.035v-4.214h1.875v4.746c.56.097 1.141.147 1.74.147a10.1 10.1 0 001.742-.148v-4.745h1.875v4.21c1.97-.799 3.1-2.076 3.482-2.569v-5.245zm-.09-5.443a4.875 4.875 0 004.87-4.87V9.439H18.14v1.876a4.875 4.875 0 004.87 4.87z"/></symbol>
<symbol xmlns="http://www.w3.org/2000/svg" id="burger" viewBox="0 0 24 24"><path d="M2.91 7.333h18.18a1.818 1.818 0 000-3.636H2.91a1.818 1.818 0 000 3.636zm0 6.485h18.18a1.818 1.818 0 000-3.636H2.91a1.818 1.818 0 000 3.636zm18.181 6.485H2.91a1.818 1.818 0 010-3.637h18.182a1.818 1.818 0 010 3.637z"/></symbol>
</svg>